<svg xmlns="http://www.w3.org/2000/svg" viewBox="-31.22 92.03 494.34 118.66">  <g style="" transform="matrix(1.183882, 0, 0, 1.183882, -35.28577, 51.967537)">    <rect x="8.356" y="-125.562" width="405.496" height="1.764" style="" transform="matrix(1, 0, 0, -1, 0, 0)"></rect>    <rect x="8.356" y="127.299" width="405.496" height="3.485" style=""></rect>    <g transform="matrix(1, 0, 0, 1, -16.108027, -117.125885)">      <rect x="24.464" y="-157.339" width="405.496" height="1.764" style="" transform="matrix(1, 0, 0, -1, 0, 0)"></rect>      <rect x="24.464" y="159.076" width="405.496" height="3.485" style=""></rect>    </g>    <path d="M 7.702 38.819 L 9.466 38.819 L 9.466 133.963 L 7.702 133.963 Z" style=""></path>    <path d="M 10.964 38.819 L 12.728 38.819 L 12.728 133.948 L 10.964 133.948 Z" style=""></path>    <path d="M 410.531 39.067 L 412.295 39.067 L 412.295 133.93 L 410.531 133.93 Z" style=""></path>    <path d="M 413.793 39.067 L 415.557 39.067 L 415.557 133.93 L 413.793 133.93 Z" style=""></path>    <g transform="matrix(1, 0, 0, 1, -9.036935, -81.985504)">      <rect x="18.689" y="118.616" width="2.842" height="2.842" style="fill: rgb(216, 216, 216);"></rect>      <rect x="15.913" y="118.616" width="2.842" height="2.842" style=""></rect>      <rect x="21.548" y="118.616" width="2.842" height="2.842" style=""></rect>      <rect x="24.346" y="118.616" width="2.842" height="2.842" style=""></rect>      <rect x="18.815" y="115.823" width="2.842" height="2.842" style=""></rect>      <rect x="21.607" y="115.823" width="2.842" height="2.842" style=""></rect>      <rect x="13.065" y="121.409" width="2.842" height="2.842" style=""></rect>      <rect x="15.907" y="121.409" width="2.842" height="2.842" style=""></rect>      <rect x="18.749" y="121.409" width="2.842" height="2.842" style=""></rect>      <rect x="21.591" y="121.409" width="2.842" height="2.842" style=""></rect>      <rect x="24.433" y="121.409" width="2.842" height="2.842" style=""></rect>      <rect x="27.275" y="121.409" width="2.842" height="2.842" style=""></rect>      <rect x="-24.506" y="-129.809" width="2.842" height="2.842" style="fill: rgb(255, 255, 255);" transform="matrix(-1, 0, 0, -1, 0, 0)"></rect>      <rect x="-27.282" y="-129.809" width="2.842" height="2.842" style="" transform="matrix(-1, 0, 0, -1, 0, 0)"></rect>      <rect x="-21.647" y="-129.809" width="2.842" height="2.842" style="fill: rgb(255, 255, 255);" transform="matrix(-1, 0, 0, -1, 0, 0)"></rect>      <rect x="-18.849" y="-129.809" width="2.842" height="2.842" style="" transform="matrix(-1, 0, 0, -1, 0, 0)"></rect>      <rect x="-24.38" y="-132.602" width="2.842" height="2.842" style="" transform="matrix(-1, 0, 0, -1, 0, 0)"></rect>      <rect x="-21.588" y="-132.602" width="2.842" height="2.842" style="" transform="matrix(-1, 0, 0, -1, 0, 0)"></rect>      <rect x="-30.13" y="-127.016" width="2.842" height="2.842" style="" transform="matrix(-1, 0, 0, -1, 0, 0)"></rect>      <rect x="-27.288" y="-127.016" width="2.842" height="2.842" style="fill: rgb(255, 255, 255);" transform="matrix(-1, 0, 0, -1, 0, 0)"></rect>      <rect x="-24.446" y="-127.016" width="2.842" height="2.842" style="fill: rgb(255, 255, 255);" transform="matrix(-1, 0, 0, -1, 0, 0)"></rect>      <rect x="-21.604" y="-127.016" width="2.842" height="2.842" style="fill: rgb(255, 255, 255);" transform="matrix(-1, 0, 0, -1, 0, 0)"></rect>      <rect x="-18.762" y="-127.016" width="2.842" height="2.842" style="fill: rgb(255, 255, 255);" transform="matrix(-1, 0, 0, -1, 0, 0)"></rect>      <rect x="-15.92" y="-127.016" width="2.842" height="2.842" style="" transform="matrix(-1, 0, 0, -1, 0, 0)"></rect>    </g>    <g transform="matrix(1, 0, 0, 1, -9.628854, 1.466834)">      <rect x="18.689" y="118.616" width="2.842" height="2.842" style="fill: rgb(216, 216, 216);"></rect>      <rect x="15.913" y="118.616" width="2.842" height="2.842" style=""></rect>      <rect x="21.548" y="118.616" width="2.842" height="2.842" style=""></rect>      <rect x="24.346" y="118.616" width="2.842" height="2.842" style=""></rect>      <rect x="18.815" y="115.823" width="2.842" height="2.842" style=""></rect>      <rect x="21.607" y="115.823" width="2.842" height="2.842" style=""></rect>      <rect x="13.065" y="121.409" width="2.842" height="2.842" style=""></rect>      <rect x="15.907" y="121.409" width="2.842" height="2.842" style=""></rect>      <rect x="18.749" y="121.409" width="2.842" height="2.842" style=""></rect>      <rect x="21.591" y="121.409" width="2.842" height="2.842" style=""></rect>      <rect x="24.433" y="121.409" width="2.842" height="2.842" style=""></rect>      <rect x="27.275" y="121.409" width="2.842" height="2.842" style=""></rect>      <rect x="-24.506" y="-129.809" width="2.842" height="2.842" style="fill: rgb(255, 255, 255);" transform="matrix(-1, 0, 0, -1, 0, 0)"></rect>      <rect x="-27.282" y="-129.809" width="2.842" height="2.842" style="" transform="matrix(-1, 0, 0, -1, 0, 0)"></rect>      <rect x="-21.647" y="-129.809" width="2.842" height="2.842" style="fill: rgb(255, 255, 255);" transform="matrix(-1, 0, 0, -1, 0, 0)"></rect>      <rect x="-18.849" y="-129.809" width="2.842" height="2.842" style="" transform="matrix(-1, 0, 0, -1, 0, 0)"></rect>      <rect x="-24.38" y="-132.602" width="2.842" height="2.842" style="" transform="matrix(-1, 0, 0, -1, 0, 0)"></rect>      <rect x="-21.588" y="-132.602" width="2.842" height="2.842" style="" transform="matrix(-1, 0, 0, -1, 0, 0)"></rect>      <rect x="-30.13" y="-127.016" width="2.842" height="2.842" style="" transform="matrix(-1, 0, 0, -1, 0, 0)"></rect>      <rect x="-27.288" y="-127.016" width="2.842" height="2.842" style="fill: rgb(255, 255, 255);" transform="matrix(-1, 0, 0, -1, 0, 0)"></rect>      <rect x="-24.446" y="-127.016" width="2.842" height="2.842" style="fill: rgb(255, 255, 255);" transform="matrix(-1, 0, 0, -1, 0, 0)"></rect>      <rect x="-21.604" y="-127.016" width="2.842" height="2.842" style="fill: rgb(255, 255, 255);" transform="matrix(-1, 0, 0, -1, 0, 0)"></rect>      <rect x="-18.762" y="-127.016" width="2.842" height="2.842" style="fill: rgb(255, 255, 255);" transform="matrix(-1, 0, 0, -1, 0, 0)"></rect>      <rect x="-15.92" y="-127.016" width="2.842" height="2.842" style="" transform="matrix(-1, 0, 0, -1, 0, 0)"></rect>    </g>    <g transform="matrix(1, 0, 0, 1, 389.377594, -81.985504)">      <rect x="18.689" y="118.616" width="2.842" height="2.842" style="fill: rgb(216, 216, 216);"></rect>      <rect x="15.913" y="118.616" width="2.842" height="2.842" style=""></rect>      <rect x="21.548" y="118.616" width="2.842" height="2.842" style=""></rect>      <rect x="24.346" y="118.616" width="2.842" height="2.842" style=""></rect>      <rect x="18.815" y="115.823" width="2.842" height="2.842" style=""></rect>      <rect x="21.607" y="115.823" width="2.842" height="2.842" style=""></rect>      <rect x="13.065" y="121.409" width="2.842" height="2.842" style=""></rect>      <rect x="15.907" y="121.409" width="2.842" height="2.842" style=""></rect>      <rect x="18.749" y="121.409" width="2.842" height="2.842" style=""></rect>      <rect x="21.591" y="121.409" width="2.842" height="2.842" style=""></rect>      <rect x="24.433" y="121.409" width="2.842" height="2.842" style=""></rect>      <rect x="27.275" y="121.409" width="2.842" height="2.842" style=""></rect>      <rect x="-24.506" y="-129.809" width="2.842" height="2.842" style="fill: rgb(255, 255, 255);" transform="matrix(-1, 0, 0, -1, 0, 0)"></rect>      <rect x="-27.282" y="-129.809" width="2.842" height="2.842" style="" transform="matrix(-1, 0, 0, -1, 0, 0)"></rect>      <rect x="-21.647" y="-129.809" width="2.842" height="2.842" style="fill: rgb(255, 255, 255);" transform="matrix(-1, 0, 0, -1, 0, 0)"></rect>      <rect x="-18.849" y="-129.809" width="2.842" height="2.842" style="" transform="matrix(-1, 0, 0, -1, 0, 0)"></rect>      <rect x="-24.38" y="-132.602" width="2.842" height="2.842" style="" transform="matrix(-1, 0, 0, -1, 0, 0)"></rect>      <rect x="-21.588" y="-132.602" width="2.842" height="2.842" style="" transform="matrix(-1, 0, 0, -1, 0, 0)"></rect>      <rect x="-30.13" y="-127.016" width="2.842" height="2.842" style="" transform="matrix(-1, 0, 0, -1, 0, 0)"></rect>      <rect x="-27.288" y="-127.016" width="2.842" height="2.842" style="fill: rgb(255, 255, 255);" transform="matrix(-1, 0, 0, -1, 0, 0)"></rect>      <rect x="-24.446" y="-127.016" width="2.842" height="2.842" style="fill: rgb(255, 255, 255);" transform="matrix(-1, 0, 0, -1, 0, 0)"></rect>      <rect x="-21.604" y="-127.016" width="2.842" height="2.842" style="fill: rgb(255, 255, 255);" transform="matrix(-1, 0, 0, -1, 0, 0)"></rect>      <rect x="-18.762" y="-127.016" width="2.842" height="2.842" style="fill: rgb(255, 255, 255);" transform="matrix(-1, 0, 0, -1, 0, 0)"></rect>      <rect x="-15.92" y="-127.016" width="2.842" height="2.842" style="" transform="matrix(-1, 0, 0, -1, 0, 0)"></rect>    </g>    <g transform="matrix(1, 0, 0, 1, 390.867737, 1.466834)">      <rect x="18.689" y="118.616" width="2.842" height="2.842" style="fill: rgb(216, 216, 216);"></rect>      <rect x="15.913" y="118.616" width="2.842" height="2.842" style=""></rect>      <rect x="21.548" y="118.616" width="2.842" height="2.842" style=""></rect>      <rect x="24.346" y="118.616" width="2.842" height="2.842" style=""></rect>      <rect x="18.815" y="115.823" width="2.842" height="2.842" style=""></rect>      <rect x="21.607" y="115.823" width="2.842" height="2.842" style=""></rect>      <rect x="13.065" y="121.409" width="2.842" height="2.842" style=""></rect>      <rect x="15.907" y="121.409" width="2.842" height="2.842" style=""></rect>      <rect x="18.749" y="121.409" width="2.842" height="2.842" style=""></rect>      <rect x="21.591" y="121.409" width="2.842" height="2.842" style=""></rect>      <rect x="24.433" y="121.409" width="2.842" height="2.842" style=""></rect>      <rect x="27.275" y="121.409" width="2.842" height="2.842" style=""></rect>      <rect x="-24.506" y="-129.809" width="2.842" height="2.842" style="fill: rgb(255, 255, 255);" transform="matrix(-1, 0, 0, -1, 0, 0)"></rect>      <rect x="-27.282" y="-129.809" width="2.842" height="2.842" style="" transform="matrix(-1, 0, 0, -1, 0, 0)"></rect>      <rect x="-21.647" y="-129.809" width="2.842" height="2.842" style="fill: rgb(255, 255, 255);" transform="matrix(-1, 0, 0, -1, 0, 0)"></rect>      <rect x="-18.849" y="-129.809" width="2.842" height="2.842" style="" transform="matrix(-1, 0, 0, -1, 0, 0)"></rect>      <rect x="-24.38" y="-132.602" width="2.842" height="2.842" style="" transform="matrix(-1, 0, 0, -1, 0, 0)"></rect>      <rect x="-21.588" y="-132.602" width="2.842" height="2.842" style="" transform="matrix(-1, 0, 0, -1, 0, 0)"></rect>      <rect x="-30.13" y="-127.016" width="2.842" height="2.842" style="" transform="matrix(-1, 0, 0, -1, 0, 0)"></rect>      <rect x="-27.288" y="-127.016" width="2.842" height="2.842" style="fill: rgb(255, 255, 255);" transform="matrix(-1, 0, 0, -1, 0, 0)"></rect>      <rect x="-24.446" y="-127.016" width="2.842" height="2.842" style="fill: rgb(255, 255, 255);" transform="matrix(-1, 0, 0, -1, 0, 0)"></rect>      <rect x="-21.604" y="-127.016" width="2.842" height="2.842" style="fill: rgb(255, 255, 255);" transform="matrix(-1, 0, 0, -1, 0, 0)"></rect>      <rect x="-18.762" y="-127.016" width="2.842" height="2.842" style="fill: rgb(255, 255, 255);" transform="matrix(-1, 0, 0, -1, 0, 0)"></rect>      <rect x="-15.92" y="-127.016" width="2.842" height="2.842" style="" transform="matrix(-1, 0, 0, -1, 0, 0)"></rect>    </g>  </g></svg>