<svg xmlns="http://www.w3.org/2000/svg" viewBox="201.78 196.9 224.94 36.01">  <path d="M 409.584 232.904 L 409.584 229.419 L 202.985 229.419 L 202.985 232.904 Z" style="" transform="matrix(-1, 0, 0, -1, 612.569016, 462.323013)"></path>  <rect x="-426.718" y="230.58" width="4.319" height="2.311" style="" transform="matrix(-1, 0, 0, 1, 0, 0)"></rect>  <rect x="-422.397" y="230.58" width="4.319" height="2.311" style="" transform="matrix(-1, 0, 0, 1, 0, 0)"></rect>  <rect x="-418.078" y="230.58" width="4.319" height="2.311" style="" transform="matrix(-1, 0, 0, 1, 0, 0)"></rect>  <rect x="-413.758" y="230.58" width="4.319" height="2.311" style="" transform="matrix(-1, 0, 0, 1, 0, 0)"></rect>  <path d="M 205.262 231.032 L 201.777 231.032 L 201.777 196.897 L 205.262 196.897 Z" style=""></path>  <rect x="-422.442" y="228.376" width="4.319" height="2.311" style="" transform="matrix(-1, 0, 0, 1, 0, 0)"></rect>  <rect x="-418.122" y="228.376" width="4.319" height="2.311" style="" transform="matrix(-1, 0, 0, 1, 0, 0)"></rect>  <rect x="-413.803" y="228.376" width="4.319" height="2.311" style="" transform="matrix(-1, 0, 0, 1, 0, 0)"></rect>  <rect x="-418.131" y="226.054" width="4.319" height="2.311" style="" transform="matrix(-1, 0, 0, 1, 0, 0)"></rect>  <rect x="-413.81" y="226.054" width="4.319" height="2.311" style="" transform="matrix(-1, 0, 0, 1, 0, 0)"></rect>  <rect x="-413.949" y="224.267" width="4.319" height="2.311" style="" transform="matrix(-1, 0, 0, 1, 0, 0)"></rect></svg>