<?xml version="1.0" encoding="utf-8"?>
<svg viewBox="232.817 156.462 60.763 87.612" xmlns="http://www.w3.org/2000/svg">
  <rect y="231.534" width="12.512" height="12.512" style="" x="-293.58" transform="matrix(-1, 0, 0, 1, 0, 0)"/>
  <rect x="-293.58" y="219.022" width="12.512" height="12.512" style="" transform="matrix(-1, 0, 0, 1, 0, 0)"/>
  <rect x="-293.58" y="206.51" width="12.512" height="12.512" style="" transform="matrix(-1, 0, 0, 1, 0, 0)"/>
  <rect x="-293.58" y="193.998" width="12.512" height="12.512" style="" transform="matrix(-1, 0, 0, 1, 0, 0)"/>
  <rect x="-293.58" y="181.486" width="12.512" height="12.512" style="" transform="matrix(-1, 0, 0, 1, 0, 0)"/>
  <rect x="-293.58" y="168.974" width="12.512" height="12.512" style="" transform="matrix(-1, 0, 0, 1, 0, 0)"/>
  <rect x="-293.58" width="12.512" height="12.512" style="" y="156.462" transform="matrix(-1, 0, 0, 1, 0, 0)"/>
  <rect y="231.562" width="12.512" height="12.512" style="" x="-281.579" transform="matrix(-1, 0, 0, 1, 0, 0)"/>
  <rect x="-281.579" y="219.05" width="12.512" height="12.512" style="" transform="matrix(-1, 0, 0, 1, 0, 0)"/>
  <rect x="-281.579" y="206.537" width="12.512" height="12.512" style="" transform="matrix(-1, 0, 0, 1, 0, 0)"/>
  <rect x="-281.579" y="194.026" width="12.512" height="12.512" style="" transform="matrix(-1, 0, 0, 1, 0, 0)"/>
  <rect x="-281.579" y="181.514" width="12.512" height="12.512" style="" transform="matrix(-1, 0, 0, 1, 0, 0)"/>
  <rect x="-281.579" y="169.002" width="12.512" height="12.512" style="" transform="matrix(-1, 0, 0, 1, 0, 0)"/>
  <rect x="-281.579" width="12.512" height="12.512" style="" y="156.49" transform="matrix(-1, 0, 0, 1, 0, 0)"/>
  <rect x="-268.925" y="219.153" width="12.512" height="12.512" style="" transform="matrix(-1, 0, 0, 1, 0, 0)"/>
  <rect x="-268.925" y="206.64" width="12.512" height="12.512" style="" transform="matrix(-1, 0, 0, 1, 0, 0)"/>
  <rect x="-268.925" y="194.129" width="12.512" height="12.512" style="" transform="matrix(-1, 0, 0, 1, 0, 0)"/>
  <rect x="-268.925" y="181.617" width="12.512" height="12.512" style="" transform="matrix(-1, 0, 0, 1, 0, 0)"/>
  <rect x="-268.925" y="169.105" width="12.512" height="12.512" style="" transform="matrix(-1, 0, 0, 1, 0, 0)"/>
  <rect x="-257.185" y="207.074" width="12.512" height="12.512" style="" transform="matrix(-1, 0, 0, 1, 0, 0)"/>
  <rect x="-257.185" y="194.563" width="12.512" height="12.512" style="" transform="matrix(-1, 0, 0, 1, 0, 0)"/>
  <rect x="-257.185" y="182.051" width="12.512" height="12.512" style="" transform="matrix(-1, 0, 0, 1, 0, 0)"/>
  <rect x="-245.329" y="194.483" width="12.512" height="12.512" style="" transform="matrix(-1, 0, 0, 1, 0, 0)"/>
</svg>