<?xml version="1.0" encoding="utf-8"?>
<svg viewBox="232.817 156.462 60.763 87.612" xmlns="http://www.w3.org/2000/svg">
  <rect y="231.534" width="12.512" height="12.512" style="" x="232.817"/>
  <rect x="232.817" y="219.022" width="12.512" height="12.512" style=""/>
  <rect x="232.817" y="206.51" width="12.512" height="12.512" style=""/>
  <rect x="232.817" y="193.998" width="12.512" height="12.512" style=""/>
  <rect x="232.817" y="181.486" width="12.512" height="12.512" style=""/>
  <rect x="232.817" y="168.974" width="12.512" height="12.512" style=""/>
  <rect x="232.817" width="12.512" height="12.512" style="" y="156.462"/>
  <rect y="231.562" width="12.512" height="12.512" style="" x="244.818"/>
  <rect x="244.818" y="219.05" width="12.512" height="12.512" style=""/>
  <rect x="244.818" y="206.537" width="12.512" height="12.512" style=""/>
  <rect x="244.818" y="194.026" width="12.512" height="12.512" style=""/>
  <rect x="244.818" y="181.514" width="12.512" height="12.512" style=""/>
  <rect x="244.818" y="169.002" width="12.512" height="12.512" style=""/>
  <rect x="244.818" width="12.512" height="12.512" style="" y="156.49"/>
  <rect x="257.472" y="219.153" width="12.512" height="12.512" style=""/>
  <rect x="257.472" y="206.64" width="12.512" height="12.512" style=""/>
  <rect x="257.472" y="194.129" width="12.512" height="12.512" style=""/>
  <rect x="257.472" y="181.617" width="12.512" height="12.512" style=""/>
  <rect x="257.472" y="169.105" width="12.512" height="12.512" style=""/>
  <rect x="269.212" y="207.074" width="12.512" height="12.512" style=""/>
  <rect x="269.212" y="194.563" width="12.512" height="12.512" style=""/>
  <rect x="269.212" y="182.051" width="12.512" height="12.512" style=""/>
  <rect x="281.068" y="194.483" width="12.512" height="12.512" style=""/>
</svg>